<svg xmlns="http://www.w3.org/2000/svg" xmlns:xlink="http://www.w3.org/1999/xlink" width="640" height="360" viewBox="0 0 640 360">
  <defs>
    <linearGradient id="picture-b" x1="50%" x2="50%" y1="55.531%" y2="-63.919%">
      <stop offset="0%" stop-color="#FFF"/>
      <stop offset="100%" stop-color="#E9ECEF"/>
    </linearGradient>
    <rect id="picture-a" width="640" height="360"/>
  </defs>
  <g fill="none" fill-rule="evenodd">
    <rect width="640" height="360"/>
    <use fill="url(#picture-b)" xlink:href="#picture-a"/>
    <g transform="translate(62 124)">
      <polygon fill="#FFF" fill-rule="nonzero" points="89.479 .574 29.826 .574 29.826 30.4 0 30.4 0 90.052 59.652 90.052 59.652 60.226 89.479 60.226"/>
      <polygon fill="#00B3E3" fill-rule="nonzero" points="0 30.4 0 60.226 29.826 60.226 29.826 90.052 59.652 90.052 59.652 30.4" opacity=".4"/>
      <path fill="#263746" fill-rule="nonzero" d="M106.399359,77.7202865 L119.304942,67.3958204 C123.033221,73.7052163 128.769035,77.4334957 135.365222,77.4334957 C142.53499,77.4334957 146.55006,72.8448441 146.55006,67.6826111 C146.55006,61.6600059 139.093502,59.6524708 131.063361,57.0713543 C121.025686,53.9166563 109.840848,50.1883769 109.840848,35.8488406 C109.840848,23.8036302 120.165314,14.3395362 134.791641,14.3395362 C146.836851,14.3395362 154.006619,18.9281878 160.029225,25.2375838 L148.270805,34.1280963 C145.116107,29.5394447 140.814246,26.9583281 135.078431,26.9583281 C128.482245,26.9583281 124.753965,30.3998168 124.753965,35.2752592 C124.753965,41.0110737 131.923733,43.0186087 139.953874,45.5997253 C149.991549,48.7544232 161.463178,53.3430748 161.463178,67.6826111 C161.463178,79.4410308 151.999084,90.9126598 135.652013,90.9126598 C122.172849,91.1994505 112.995546,85.463636 106.399359,77.7202865 Z M220.828858,39.0035386 L234.594813,39.0035386 L234.594813,44.7393531 C237.749511,40.4374922 242.911744,37.8563757 248.647559,37.8563757 C260.692769,37.8563757 267.862537,45.5997253 267.862537,58.7920986 L267.862537,90.0522876 L253.523001,90.0522876 L253.523001,60.7996337 C253.523001,53.9166563 250.368303,49.9015861 244.058907,49.9015861 C238.609883,49.9015861 234.308022,53.6298656 234.308022,62.2335873 L234.308022,90.0522876 L220.828858,90.0522876 L220.828858,39.0035386 Z M271.304026,64.5279131 C271.304026,46.4600974 284.496399,37.8563757 296.254819,37.8563757 C302.851006,37.8563757 308.013239,40.4374922 311.454727,43.8789809 L311.454727,15.4866991 L325.507473,15.4866991 L325.507473,90.0522876 L311.454727,90.0522876 L311.454727,84.3164731 C308.013239,88.3315433 302.564215,91.1994505 295.968028,91.1994505 C285.069981,91.1994505 271.304026,82.5957288 271.304026,64.5279131 Z M311.741518,64.5279131 C311.741518,57.0713543 306.292494,50.7619583 298.549145,50.7619583 C290.805795,50.7619583 284.78319,56.4977728 284.78319,64.5279131 C284.78319,72.2712627 290.805795,78.2938679 298.549145,78.2938679 C306.292494,78.2938679 311.741518,71.984472 311.741518,64.5279131 Z M328.662171,52.7694934 C328.662171,31.5469797 344.722451,14.3395362 366.805337,14.3395362 C377.990175,14.3395362 387.167479,18.3546064 393.763665,24.6640023 C396.631573,27.2451189 398.925898,30.1130261 400.646643,33.5545148 L388.314642,41.0110737 C383.72599,32.4073519 376.556222,28.105491 366.805337,28.105491 C353.326173,28.105491 342.714916,39.2903293 342.714916,52.7694934 C342.714916,66.5354482 353.039382,77.4334957 367.378919,77.4334957 C378.276966,77.4334957 386.020316,71.4108905 388.601432,61.6600059 L365.084593,61.6600059 L365.084593,48.1808418 L403.801341,48.1808418 L403.801341,53.9166563 C403.801341,73.992007 389.461804,91.1994505 367.378919,91.1994505 C344.14887,91.1994505 328.662171,73.4184256 328.662171,52.7694934 Z M407.52962,39.0035386 L421.295575,39.0035386 L421.295575,47.3204696 C423.876691,41.8714458 428.465343,39.0035386 435.34832,39.0035386 L441.084135,39.0035386 L435.921902,52.4827027 L432.193622,52.4827027 C424.737064,52.4827027 421.582366,56.4977728 421.582366,65.9618667 L421.582366,90.0522876 L407.52962,90.0522876 L407.52962,39.0035386 Z M444.812414,39.0035386 L458.86516,39.0035386 L458.86516,90.0522876 L444.812414,90.0522876 L444.812414,52.7694934 L439.650181,52.7694934 L444.812414,39.0035386 Z M451.982182,31.260189 C456.570834,31.260189 460.299114,27.5319096 460.299114,22.943258 C460.299114,18.3546064 456.570834,14.626327 451.982182,14.626327 C447.393531,14.626327 443.665251,18.3546064 443.665251,22.943258 C443.378461,27.5319096 447.10674,31.260189 451.982182,31.260189 Z M462.019858,64.5279131 C462.019858,46.4600974 475.212231,37.8563757 486.970651,37.8563757 C493.566838,37.8563757 498.729071,40.4374922 502.170559,43.8789809 L502.170559,15.4866991 L516.223305,15.4866991 L516.223305,90.0522876 L502.170559,90.0522876 L502.170559,84.3164731 C498.729071,88.3315433 493.280047,91.1994505 486.68386,91.1994505 C476.072603,91.1994505 462.019858,82.5957288 462.019858,64.5279131 Z M502.744141,64.5279131 C502.744141,57.0713543 497.295117,50.7619583 489.551767,50.7619583 C481.808418,50.7619583 475.785813,56.4977728 475.785813,64.5279131 C475.785813,72.2712627 481.808418,78.2938679 489.551767,78.2938679 C497.008326,78.2938679 502.744141,71.984472 502.744141,64.5279131 Z M217.387369,64.5279131 C217.387369,49.9015861 206.776113,38.1431664 191.002623,38.1431664 C176.376296,38.1431664 164.331085,49.9015861 164.331085,64.8147038 C164.331085,79.4410308 175.515924,91.4862413 191.289414,91.4862413 C202.474252,91.4862413 210.217601,86.0372175 214.806253,78.5806586 L203.621415,71.984472 C201.327089,76.5731236 196.738437,79.4410308 191.289414,79.4410308 C183.832855,79.4410308 179.244203,75.7127514 177.810249,70.2637276 L217.387369,70.2637276 L217.387369,64.5279131 Z M178.670622,58.2185172 C180.678157,53.3430748 185.266808,50.1883769 191.289414,50.1883769 C197.312019,50.1883769 201.61388,53.0562841 203.334624,58.2185172 L178.670622,58.2185172 Z"/>
      <rect width="29.826" height="29.826" y="60.226" fill="#1A82E2" fill-rule="nonzero"/>
      <polygon fill="#00B3E3" fill-rule="nonzero" points="59.652 30.4 59.652 .574 29.826 .574 29.826 30.4 29.826 60.226 59.652 60.226 89.479 60.226 89.479 30.4"/>
      <rect width="29.826" height="29.826" x="59.652" y=".574" fill="#1A82E2" fill-rule="nonzero"/>
    </g>
  </g>
</svg>
